<svg width="100" height="100" viewBox="0 0 100 100" fill="none" xmlns="http://www.w3.org/2000/svg">
<rect width="100" height="100" rx="50" fill="black"/>
<path d="M65.3029 28.8381C64.1799 28.8365 63.071 29.0873 62.0577 29.5719V27.755C62.0584 25.948 61.4144 24.2001 60.2419 22.8264C59.0694 21.4527 57.4455 20.5435 55.6627 20.2626C53.8799 19.9817 52.0555 20.3476 50.5183 21.2943C48.9811 22.2411 47.8322 23.7064 47.2785 25.4263C46.1254 24.8001 44.8296 24.4845 43.518 24.5106C42.2065 24.5366 40.9242 24.9034 39.7968 25.575C38.6694 26.2465 37.7356 27.1998 37.0868 28.3415C36.4381 29.4831 36.0967 30.7739 36.0961 32.0874V49.4169L35.0631 47.7571C34.0597 46.0233 32.4116 44.7577 30.479 44.2371C28.5464 43.7164 26.4866 43.9829 24.7497 44.9784C23.0128 45.9739 21.7402 47.6174 21.2099 49.5496C20.6797 51.4819 20.935 53.5457 21.9201 55.29C26.247 64.434 29.7437 70.9191 33.7434 74.9726C37.7837 79.0775 42.3702 80.8267 49.0769 80.8267C55.3864 80.8195 61.4353 78.3068 65.8968 73.8397C70.3583 69.3726 72.8678 63.316 72.875 56.9986V36.4198C72.875 34.409 72.0772 32.4805 70.6572 31.0587C69.2371 29.6369 67.3111 28.8381 65.3029 28.8381ZM68.5481 56.9986C68.5423 62.1674 66.4891 67.1229 62.8388 70.7778C59.1885 74.4327 54.2392 76.4886 49.0769 76.4943C43.5655 76.4943 40.0147 75.1729 36.8182 71.9318C33.2404 68.3007 29.9465 62.1433 25.7927 53.3648C25.7683 53.3111 25.7412 53.2587 25.7115 53.2078C25.2812 52.4612 25.1647 51.5742 25.3876 50.7416C25.6104 49.9091 26.1545 49.1993 26.9001 48.7684C27.6456 48.3375 28.5316 48.2208 29.3631 48.444C30.1946 48.6672 30.9035 49.212 31.3338 49.9585C31.3448 49.9802 31.3575 50.001 31.3717 50.0207L36.4207 58.144C36.6687 58.5447 37.0405 58.8534 37.4797 59.0234C37.9189 59.1933 38.4014 59.2152 38.8542 59.0857C39.3069 58.9561 39.705 58.6822 39.9882 58.3055C40.2713 57.9289 40.424 57.47 40.4231 56.9986V32.0874C40.4231 31.2256 40.765 30.3991 41.3736 29.7898C41.9822 29.1804 42.8076 28.8381 43.6683 28.8381C44.5289 28.8381 45.3544 29.1804 45.963 29.7898C46.5716 30.3991 46.9135 31.2256 46.9135 32.0874V48.3338C46.9135 48.9083 47.1414 49.4593 47.5471 49.8655C47.9529 50.2718 48.5031 50.5 49.0769 50.5C49.6507 50.5 50.201 50.2718 50.6067 49.8655C51.0124 49.4593 51.2404 48.9083 51.2404 48.3338V27.755C51.2404 26.8932 51.5823 26.0667 52.1909 25.4574C52.7995 24.848 53.6249 24.5057 54.4856 24.5057C55.3463 24.5057 56.1717 24.848 56.7803 25.4574C57.3889 26.0667 57.7308 26.8932 57.7308 27.755V48.3338C57.7308 48.9083 57.9587 49.4593 58.3644 49.8655C58.7702 50.2718 59.3204 50.5 59.8942 50.5C60.468 50.5 61.0183 50.2718 61.424 49.8655C61.8298 49.4593 62.0577 48.9083 62.0577 48.3338V36.4198C62.0577 35.558 62.3996 34.7315 63.0082 34.1222C63.6168 33.5128 64.4422 33.1705 65.3029 33.1705C66.1636 33.1705 66.989 33.5128 67.5976 34.1222C68.2062 34.7315 68.5481 35.558 68.5481 36.4198V56.9986Z" fill="white"/>
</svg>
